<svg xmlns="http://www.w3.org/2000/svg" width="512" height="512" viewBox="0 0 512 512">
<g>
<path d="M 146.33 494.75 C141.57,501.12 135.99,497.91 135.20,488.35 C133.90,472.67 143.40,448.24 157.22,431.73 C159.44,429.09 161.08,426.77 160.88,426.60 C159.59,425.49 147.16,418.00 146.61,418.00 C146.24,418.00 143.67,419.80 140.89,421.99 C135.80,426.02 122.30,433.00 119.61,433.00 C118.81,433.00 117.64,434.58 117.00,436.50 C115.84,440.01 114.65,440.86 113.50,439.01 C112.19,436.87 127.01,372.61 132.00,358.81 C135.24,349.87 139.81,343.15 141.82,344.39 C145.07,346.39 141.92,357.42 133.16,374.74 C128.46,384.05 124.33,397.11 125.50,399.00 C125.80,399.48 128.72,401.51 131.99,403.50 C135.27,405.48 138.52,408.28 139.22,409.71 C139.92,411.14 141.27,412.79 142.21,413.38 C144.67,414.90 149.48,410.01 151.89,403.56 C152.99,400.60 154.48,398.36 155.48,398.16 C156.75,397.91 157.04,398.30 156.61,399.66 C155.04,404.61 154.41,410.86 155.24,413.07 L 156.15 415.50 L 159.56 411.50 C161.43,409.30 163.98,405.59 165.23,403.25 C166.48,400.91 168.12,399.00 168.89,399.00 C170.30,399.00 170.25,400.48 168.34,415.35 L 167.72 420.19 L 176.37 413.52 L 185.02 406.84 L 182.76 404.87 L 180.50 402.89 L 183.00 403.67 C184.38,404.09 186.74,404.40 188.25,404.36 C193.13,404.23 191.28,407.24 182.93,413.00 C178.55,416.02 173.60,419.89 171.93,421.59 L 168.91 424.69 L 174.50 426.83 C177.57,428.00 181.56,430.09 183.36,431.46 C187.56,434.66 193.24,436.65 200.63,437.50 C205.80,438.10 211.13,439.16 216.02,440.55 C217.32,440.93 217.54,439.27 217.52,429.04 C217.50,418.09 217.33,417.01 215.50,416.11 C213.56,415.16 213.56,415.13 215.69,415.07 C217.53,415.01 217.98,414.24 218.53,410.25 C222.29,382.84 237.13,347.60 247.07,342.46 C253.21,339.29 256.08,341.31 258.04,350.21 C259.05,354.78 259.05,358.08 258.06,366.71 C256.75,378.11 252.44,401.89 251.51,402.82 C251.21,403.12 250.54,402.94 250.01,402.41 C249.40,401.80 249.96,396.57 251.57,387.97 C254.47,372.50 255.78,351.93 254.13,347.75 C253.35,345.77 252.35,345.00 250.55,345.00 C242.30,345.00 226.52,380.22 222.09,408.50 C221.34,413.33 221.43,414.72 222.58,415.61 C224.42,417.05 224.39,418.00 222.50,418.00 C221.26,418.00 221.00,419.87 221.00,428.81 C221.00,435.96 221.42,440.15 222.25,441.18 C224.23,443.66 231.98,445.00 244.19,444.98 L 255.50 444.96 L 258.50 440.76 C262.97,434.51 271.14,420.81 270.67,420.34 C270.45,420.11 266.22,420.47 261.27,421.13 C256.29,421.79 251.44,421.96 250.39,421.50 C249.10,420.94 252.29,420.18 260.50,419.09 L 272.50 417.50 L 276.00 410.75 C278.29,406.33 280.10,404.00 281.25,404.00 C283.31,404.00 283.34,404.32 281.91,411.01 C280.55,417.33 281.33,421.00 284.02,421.00 C285.11,421.00 286.00,420.42 286.00,419.72 C286.00,419.01 287.29,417.95 288.86,417.36 C292.27,416.07 299.44,406.92 301.34,401.42 C302.13,399.15 303.45,397.35 304.50,397.15 C305.89,396.88 306.13,397.21 305.56,398.65 C305.16,399.67 304.58,402.08 304.27,404.00 L 303.72 407.50 L 306.17 405.25 C309.61,402.10 312.62,402.36 314.47,405.95 C315.31,407.57 316.00,409.49 316.00,410.20 C316.01,410.92 316.89,412.95 317.98,414.73 C320.53,418.92 322.05,418.29 327.04,410.94 C330.37,406.04 331.46,403.01 333.99,391.68 C335.65,384.29 337.00,377.84 337.00,377.36 C337.00,376.87 330.50,376.64 322.41,376.85 C312.68,377.10 307.46,376.86 306.73,376.13 C306.13,375.53 305.91,374.75 306.25,374.41 C306.59,374.07 313.97,373.50 322.64,373.15 L 338.40 372.50 L 340.81 362.75 C342.42,356.27 343.69,353.00 344.61,353.00 C346.45,353.00 346.34,355.05 344.02,363.99 C342.95,368.11 342.45,371.85 342.91,372.31 C343.37,372.77 345.22,373.00 347.03,372.82 C350.16,372.51 350.39,372.21 352.16,365.71 C354.42,357.44 359.07,346.99 361.32,345.14 C363.70,343.18 366.01,344.46 365.97,347.72 C365.95,349.25 364.35,354.55 362.41,359.50 C360.47,364.45 358.63,369.29 358.32,370.25 C357.81,371.87 358.98,372.00 373.63,372.01 C393.23,372.02 400.20,372.74 399.80,374.72 C399.55,375.92 395.82,376.14 377.21,376.04 L 354.92 375.93 L 352.53 381.22 C350.24,386.27 344.83,407.51 343.41,417.00 L 342.74 421.50 L 346.05 417.00 C350.31,411.20 351.95,409.96 354.97,410.26 C356.92,410.45 357.69,411.35 358.60,414.50 C359.24,416.70 360.21,418.41 360.76,418.29 C363.94,417.62 373.86,410.59 375.88,407.56 C377.46,405.19 379.03,404.00 380.57,404.00 C385.83,404.00 416.85,375.02 424.18,363.26 C426.01,360.34 429.42,355.14 431.76,351.72 C440.50,338.96 441.44,337.32 444.53,329.50 C446.27,325.10 449.40,318.12 451.49,314.00 C456.61,303.86 462.01,282.42 462.54,270.11 C462.79,264.22 463.69,258.54 464.97,254.86 C467.29,248.16 467.44,244.02 465.91,228.55 C464.20,211.23 461.28,194.24 458.12,183.26 C454.47,170.57 445.91,150.51 437.45,134.84 C433.86,128.18 431.17,122.49 431.47,122.19 C432.07,121.60 432.41,122.01 440.37,133.00 C454.08,151.94 463.44,176.08 468.66,206.00 C470.97,219.21 471.27,257.49 469.15,268.50 C461.86,306.37 448.04,339.90 432.26,358.01 C430.11,360.48 427.16,364.26 425.72,366.42 C421.92,372.07 409.48,386.44 402.50,393.21 C399.15,396.47 393.76,400.37 390.30,402.05 C382.09,406.03 380.00,408.78 380.00,415.63 C380.00,420.35 380.24,421.00 382.02,421.00 C384.80,421.00 392.30,413.86 397.79,406.01 C403.51,397.82 404.54,397.00 409.07,397.00 C413.12,397.00 415.58,399.05 414.59,401.62 C414.01,403.15 413.82,403.15 412.15,401.64 C408.05,397.92 403.78,400.78 400.47,409.45 C397.33,417.66 399.02,418.14 404.96,410.73 C407.95,407.01 410.86,404.12 411.44,404.31 C412.02,404.51 412.84,407.70 413.25,411.40 C414.14,419.32 415.34,422.00 418.03,422.00 C420.12,422.00 425.60,415.20 428.70,408.76 C430.59,404.83 433.00,403.74 433.00,406.80 C433.00,410.34 424.00,422.82 419.81,425.09 C415.89,427.22 410.00,420.55 410.00,413.98 C410.00,411.03 409.11,411.50 404.08,417.08 C399.13,422.57 396.53,422.96 395.38,418.38 L 394.78 415.99 L 391.38 418.97 C382.83,426.48 377.80,426.44 376.30,418.86 L 375.46 414.61 L 371.56 419.37 C366.71,425.28 363.04,427.34 359.66,426.06 C356.92,425.02 348.34,426.87 344.70,429.28 C343.52,430.06 341.42,433.50 340.03,436.92 C337.22,443.83 335.50,444.49 335.50,438.67 C335.50,434.96 335.41,434.87 332.51,435.45 C330.87,435.78 329.01,436.60 328.37,437.27 C326.84,438.90 321.72,467.53 322.51,470.04 C323.84,474.22 319.91,478.54 318.39,474.57 C317.85,473.16 319.62,460.60 322.42,446.01 C323.21,441.89 323.70,438.36 323.50,438.16 C323.30,437.96 320.07,438.53 316.32,439.43 C312.57,440.33 308.40,441.31 307.05,441.60 C305.32,441.98 304.98,442.37 305.90,442.94 C307.60,443.99 304.81,444.66 290.70,446.60 C284.54,447.44 276.58,448.54 273.00,449.04 C269.42,449.53 264.10,449.95 261.16,449.97 C256.33,450.00 255.33,450.42 250.66,454.37 C243.22,460.67 239.54,462.32 234.22,461.72 C228.35,461.06 225.08,458.46 221.82,451.90 C220.35,448.93 218.73,446.03 218.22,445.45 C217.71,444.87 212.84,443.60 207.40,442.61 C201.95,441.63 195.25,439.92 192.50,438.81 C174.96,431.74 166.91,428.76 166.51,429.16 C166.25,429.41 165.13,434.32 164.01,440.06 C158.51,468.29 152.71,486.22 146.33,494.75 ZM 159.46 171.07 C158.89,171.98 141.00,172.44 141.00,171.54 C141.00,171.29 142.05,169.54 143.34,167.64 C145.56,164.37 147.23,157.83 150.55,139.50 C152.46,128.93 152.39,124.09 150.30,121.78 C148.65,119.96 148.82,119.91 155.94,120.20 L 163.28 120.50 L 168.86 135.25 C171.93,143.36 174.76,150.00 175.15,150.00 C175.55,150.00 176.18,148.99 176.57,147.75 C176.96,146.51 179.50,139.76 182.22,132.75 L 187.17 120.00 L 194.24 120.00 C201.03,120.00 201.24,120.07 199.65,121.83 C197.27,124.47 197.57,129.77 201.13,148.04 C203.21,158.69 204.89,164.84 206.13,166.30 L 208.00 168.50 L 209.93 166.23 C210.99,164.98 215.78,154.07 220.58,141.98 L 229.30 120.00 L 240.67 120.00 L 245.49 132.25 C255.51,157.67 259.17,165.81 261.63,168.12 C264.08,170.43 264.20,170.44 265.54,168.61 C267.69,165.68 268.21,159.66 267.84,141.87 C267.56,128.18 267.20,124.95 265.73,122.70 L 263.95 120.00 L 280.23 120.02 C298.72,120.05 302.12,120.95 307.73,127.35 C316.30,137.10 315.75,155.45 306.60,165.30 C301.29,171.03 298.94,171.45 270.25,171.81 C254.08,172.02 244.00,171.78 244.00,171.20 C244.00,170.67 244.68,169.68 245.50,169.00 C247.21,167.58 247.47,162.36 246.01,158.53 C245.03,155.94 245.00,155.93 234.80,156.21 L 224.58 156.50 L 223.28 160.99 C222.10,165.08 222.17,165.73 223.94,168.13 C225.01,169.58 225.62,171.05 225.28,171.39 C224.94,171.72 217.09,172.00 207.83,172.00 C190.10,172.00 189.34,171.78 192.53,167.56 C193.34,166.49 194.00,164.02 194.01,162.06 C194.02,157.52 190.00,136.00 189.14,136.00 C188.78,136.00 188.01,137.46 187.42,139.25 C184.52,148.01 175.54,171.00 175.01,171.00 C174.68,171.00 171.54,163.35 168.03,154.00 C164.52,144.65 161.33,137.00 160.93,137.00 C159.79,137.00 156.91,150.79 156.28,159.30 C155.75,166.51 155.87,167.22 157.87,168.62 C159.06,169.46 159.77,170.56 159.46,171.07 ZM 180.52 240.25 C178.63,245.88 178.51,246.00 174.85,246.00 C172.80,246.00 170.89,245.63 170.61,245.18 C170.33,244.72 167.34,237.19 163.97,228.43 C155.12,205.46 153.02,200.89 149.63,197.25 L 146.61 194.00 L 168.38 194.00 L 166.19 196.04 C164.88,197.26 164.00,199.28 164.00,201.08 C164.00,203.82 173.19,228.53 174.84,230.22 C175.23,230.62 178.51,222.99 182.12,213.27 C185.74,203.55 189.22,195.43 189.85,195.22 C190.48,195.01 191.00,195.36 191.00,196.00 C191.00,196.65 193.27,203.32 196.04,210.84 C202.79,229.16 203.14,230.00 203.93,230.00 C204.95,230.00 213.98,207.10 214.66,202.77 C215.08,200.17 214.75,198.27 213.60,196.52 L 211.95 194.00 L 250.10 194.00 L 247.55 197.34 C245.03,200.65 245.00,200.88 245.00,219.39 C245.00,234.21 245.32,238.71 246.53,241.05 C247.36,242.67 248.49,244.00 249.03,244.00 C249.56,244.00 250.00,244.45 250.00,245.00 C250.00,245.60 246.16,246.00 240.47,246.00 L 230.94 246.00 L 233.22 242.92 C235.42,239.94 235.50,239.10 235.50,219.45 C235.50,201.29 235.31,198.88 233.73,197.30 C232.37,195.94 231.57,195.78 230.23,196.61 C226.98,198.64 224.55,203.99 210.53,240.00 C208.48,245.27 208.22,245.51 204.44,245.78 L 200.50 246.06 L 195.46 231.95 C192.69,224.20 189.99,217.95 189.46,218.08 C188.54,218.30 184.67,227.90 180.52,240.25 ZM 322.00 245.41 C322.00,245.73 317.95,246.00 313.00,246.00 C308.05,246.00 304.00,245.76 304.00,245.46 C304.00,245.16 304.96,243.61 306.14,242.02 C308.16,239.29 308.29,237.99 308.29,219.50 C308.29,200.93 308.17,199.72 306.11,196.94 L 303.94 194.00 L 313.72 194.03 C321.61,194.06 323.19,194.30 321.91,195.28 C318.98,197.53 318.00,200.83 318.00,208.43 L 318.00 216.00 L 342.26 216.00 L 341.79 207.97 C341.43,201.76 340.83,199.26 339.13,196.97 L 336.94 194.00 L 356.18 194.00 L 353.53 197.14 L 350.89 200.29 L 351.19 220.57 C351.49,240.45 351.55,240.89 353.92,243.42 L 356.35 246.00 L 336.94 246.00 L 339.13 243.03 C340.83,240.74 341.43,238.24 341.79,232.03 L 342.26 224.00 L 318.00 224.00 L 318.00 231.87 C318.00,238.22 318.39,240.22 320.00,242.27 C321.10,243.67 322.00,245.08 322.00,245.41 ZM 262.78 445.13 C271.18,447.09 295.00,443.50 317.64,436.87 L 324.77 434.78 L 326.39 426.64 C326.47,426.22 326.55,425.81 326.63,425.43 C327.70,420.02 328.12,417.94 327.58,417.66 C327.25,417.49 326.55,418.01 325.41,418.86 C325.27,418.95 325.14,419.06 325.00,419.16 C320.99,422.12 317.19,420.90 314.72,415.84 C313.00,412.34 312.81,412.24 309.72,413.25 C307.95,413.83 305.91,414.46 305.19,414.64 C304.47,414.83 302.55,417.91 300.93,421.49 C299.31,425.07 297.56,428.00 297.05,428.00 C295.30,428.00 294.96,426.13 295.92,421.84 C296.45,419.48 296.69,417.35 296.44,417.11 C296.20,416.87 294.31,418.02 292.25,419.67 C286.26,424.47 284.09,425.36 281.40,424.14 C280.11,423.55 278.77,421.93 278.42,420.53 C277.52,416.95 276.67,417.35 273.73,422.75 C272.31,425.36 268.65,431.33 265.61,436.00 L 260.07 444.50 ZM 363.63 166.22 L 362.45 171.50 L 342.23 171.77 C331.10,171.92 322.00,171.79 322.00,171.49 C322.00,171.18 322.79,169.73 323.75,168.26 C325.23,166.01 325.55,162.64 325.83,146.75 C326.13,129.66 325.97,127.52 324.20,123.95 L 322.25 120.00 L 362.72 120.00 L 364.22 127.50 C365.04,131.62 365.32,135.00 364.85,135.00 C364.38,135.00 364.00,134.53 364.00,133.95 C364.00,133.38 362.90,131.80 361.55,130.45 C359.21,128.12 358.50,128.00 347.00,128.00 L 334.91 128.00 L 335.50 141.50 L 342.34 141.50 C348.75,141.50 349.34,141.31 351.59,138.50 L 353.99 135.50 L 354.00 155.27 L 351.93 152.63 C350.02,150.21 349.26,150.00 342.38,150.00 L 334.91 150.00 L 335.50 163.50 L 344.25 163.79 C355.46,164.16 360.63,162.81 362.83,158.95 C364.87,155.37 366.26,155.11 365.42,158.47 C365.08,159.83 364.27,163.32 363.63,166.22 ZM 277.75 163.44 C278.16,163.86 282.22,164.01 286.77,163.78 C296.01,163.31 299.02,161.80 302.50,155.90 C305.15,151.39 305.25,139.99 302.68,135.21 C299.70,129.67 295.79,128.01 285.75,128.00 L 277.00 128.00 L 277.00 145.33 C277.00,154.87 277.34,163.01 277.75,163.44 ZM 283.92 243.42 L 286.35 246.00 L 266.94 246.00 L 269.22 242.92 C271.37,240.01 271.52,238.79 271.81,220.92 L 272.12 202.00 L 268.01 202.00 C262.78,202.00 258.83,204.05 256.04,208.21 L 253.84 211.50 L 254.42 206.60 C254.74,203.91 255.47,199.97 256.04,197.85 L 257.08 194.00 L 296.81 194.00 L 297.53 199.25 C297.93,202.14 298.61,205.47 299.06,206.65 C300.44,210.30 298.96,210.04 295.05,205.94 C291.62,202.33 290.87,202.00 286.06,202.00 L 280.82 202.00 L 281.16 221.42 C281.49,240.37 281.56,240.90 283.92,243.42 ZM 91.72 101.00 C82.86,112.80 82.05,113.72 82.02,111.91 C81.99,109.51 89.71,98.43 96.50,91.13 C105.52,81.44 126.26,62.58 132.76,58.16 C140.54,52.88 156.69,43.77 166.88,38.90 C175.71,34.68 198.03,27.12 209.00,24.63 C237.56,18.13 271.42,16.99 276.77,22.34 C278.20,23.78 278.13,24.00 275.92,24.83 C272.67,26.05 267.00,25.14 267.00,23.39 C267.00,21.33 242.32,21.42 237.35,23.50 C235.16,24.41 230.58,25.00 225.63,25.01 C216.22,25.02 205.99,27.26 189.86,32.86 C173.65,38.49 162.75,43.28 153.53,48.85 C149.11,51.51 142.57,55.30 139.00,57.26 C127.22,63.72 102.62,86.48 91.72,101.00 ZM 138.84 490.86 C139.52,493.14 140.49,495.00 140.99,495.00 C142.75,495.00 146.78,488.41 149.85,480.50 C155.24,466.62 162.94,433.53 160.61,434.29 C158.27,435.05 151.67,444.95 146.46,455.50 C142.06,464.42 140.70,468.41 139.31,476.61 C137.88,485.03 137.80,487.40 138.84,490.86 ZM 329.00 431.61 L 329.00 431.64 C329.00,432.24 329.00,432.62 329.19,432.79 C329.53,433.09 330.50,432.69 333.20,431.56 L 333.27 431.53 C336.29,430.27 336.93,429.40 337.84,425.28 C338.42,422.65 339.82,416.39 340.95,411.38 C343.53,399.88 343.53,399.64 341.00,401.00 C339.78,401.65 339.00,401.69 339.00,401.10 C339.00,400.57 339.90,399.85 341.00,399.50 C342.10,399.15 343.40,398.11 343.88,397.18 C344.65,395.70 349.00,378.25 349.00,376.63 C349.00,376.28 347.23,376.00 345.07,376.00 C342.19,376.00 341.00,376.47 340.61,377.75 C339.10,382.85 329.00,429.67 329.00,431.61 ZM 46.00 229.49 C46.00,247.23 45.18,253.53 43.63,247.74 C42.74,244.44 42.99,214.24 43.94,209.00 C44.39,206.52 45.28,201.12 45.91,197.00 C48.05,183.16 51.28,171.60 57.19,156.65 C63.32,141.14 65.68,136.05 69.72,129.66 C73.43,123.77 73.40,125.86 69.66,134.10 C64.06,146.41 54.11,171.52 52.38,177.70 C51.48,180.89 50.14,187.32 49.40,192.00 C48.66,196.68 47.59,202.66 47.03,205.30 C46.46,207.94 46.00,218.82 46.00,229.49 ZM 230.41 457.11 C232.11,458.14 234.31,458.99 235.29,459.00 C239.33,459.00 251.62,450.82 250.44,448.91 C250.13,448.41 245.97,447.98 241.19,447.96 C236.41,447.93 230.48,447.52 228.00,447.04 C225.52,446.56 223.40,446.27 223.28,446.39 C222.39,447.27 227.93,455.60 230.41,457.11 ZM 340.00 37.09 C340.00,38.46 339.27,38.26 328.95,34.06 C322.83,31.57 314.38,29.22 305.45,27.52 C290.66,24.70 286.41,23.00 294.19,23.00 C303.78,23.00 340.00,34.14 340.00,37.09 ZM 229.00 146.81 C229.00,147.61 231.13,148.00 235.49,148.00 L 241.97 148.00 L 239.85 142.75 C238.69,139.86 237.25,136.26 236.65,134.75 C236.05,133.24 235.32,132.01 235.03,132.01 C234.37,132.03 229.00,145.19 229.00,146.81 ZM 121.44 426.36 C120.80,428.94 120.91,429.12 122.61,428.19 C125.59,426.58 129.59,421.88 131.89,417.29 C134.04,413.00 134.66,409.00 133.17,409.00 C130.96,409.00 122.73,421.18 121.44,426.36 ZM 157.46 421.11 C163.54,423.30 163.98,423.35 164.06,421.75 C164.09,421.06 164.47,418.36 164.90,415.75 C165.33,413.14 165.33,411.00 164.91,411.00 C163.71,411.00 159.98,416.64 160.70,417.36 C161.05,417.71 159.94,418.00 158.24,418.00 C155.21,418.00 152.60,416.30 151.75,413.77 C151.41,412.77 150.98,412.79 149.66,413.87 C146.56,416.43 147.89,417.67 157.46,421.11 ZM 52.53 287.75 C52.91,289.70 52.75,291.00 52.14,291.00 C50.66,291.00 50.37,290.30 48.15,281.47 C45.56,271.17 44.54,264.00 45.67,264.00 C46.46,264.00 50.90,279.36 52.53,287.75 ZM 346.00 424.26 C346.00,425.25 349.20,424.41 353.25,422.35 C355.24,421.33 356.00,420.20 355.98,418.22 C355.97,414.75 354.57,412.53 353.01,413.49 C351.61,414.36 346.00,422.97 346.00,424.26 ZM 109.44 388.25 C110.89,389.76 111.69,391.00 111.20,391.00 C110.72,391.00 107.40,387.96 103.82,384.25 C97.53,377.73 93.27,371.40 94.40,370.26 C95.37,369.29 98.22,372.34 102.56,379.00 C104.89,382.58 107.99,386.74 109.44,388.25 ZM 121.44 414.50 L 120.75 418.50 L 123.99 414.00 C125.77,411.52 127.92,408.95 128.76,408.28 C130.11,407.21 130.01,406.82 127.90,405.06 C126.58,403.97 125.23,403.05 124.91,403.03 C124.20,402.99 122.39,408.96 121.44,414.50 ZM 79.44 349.66 C81.97,354.41 83.84,358.50 83.59,358.74 C82.38,359.96 73.08,344.52 73.02,341.19 C72.98,338.60 74.93,341.17 79.44,349.66 ZM 380.40 59.88 C381.45,61.05 381.90,61.98 381.40,61.96 C380.08,61.89 367.36,53.39 366.49,51.98 C364.42,48.63 376.39,55.43 380.40,59.88 ZM 134.17 421.25 C133.48,422.79 135.33,421.91 139.14,418.89 C142.79,416.00 142.95,415.68 141.29,414.42 C138.49,412.29 137.51,412.72 135.96,416.75 C135.16,418.81 134.36,420.84 134.17,421.25 ZM 307.02 410.32 C306.99,411.61 311.30,410.64 311.75,409.25 C312.35,407.44 308.97,406.43 307.91,408.10 C307.43,408.87 307.02,409.87 307.02,410.32 ZM 383.82 395.67 C383.47,397.48 382.17,398.11 380.31,397.35 C378.49,396.62 379.95,394.00 382.18,394.00 C383.48,394.00 384.04,394.57 383.82,395.67 ZM 235.00 31.00 C233.03,32.27 230.00,32.27 230.00,31.00 C230.00,30.45 231.46,30.01 233.25,30.02 C235.72,30.03 236.14,30.26 235.00,31.00 Z" fill="rgb(141,77,39)"/>
<path d="M 424.60 110.75 C424.21,111.44 423.80,111.96 423.69,111.91 C419.13,109.72 416.17,106.00 419.00,106.00 C419.55,106.00 420.00,105.44 420.01,104.75 C420.02,103.15 424.70,100.95 426.57,101.67 C428.11,102.26 428.58,106.00 427.11,106.00 C426.62,106.00 426.28,105.26 426.36,104.36 C426.44,103.45 425.94,102.52 425.25,102.27 C424.56,102.03 424.00,102.53 424.00,103.39 C424.00,104.36 423.44,104.72 422.49,104.36 C421.43,103.95 421.15,104.24 421.57,105.33 C421.91,106.21 422.88,106.66 423.83,106.37 C424.75,106.09 424.46,106.49 423.18,107.25 C421.24,108.42 421.09,108.83 422.27,109.81 C423.05,110.46 424.05,110.65 424.50,110.24 C424.95,109.83 425.00,110.06 424.60,110.75 ZM 353.78 305.44 C352.56,306.30 350.42,306.95 349.03,306.90 C346.97,306.81 347.15,306.64 350.00,305.97 C352.06,305.49 354.64,303.80 356.25,301.86 C358.11,299.64 359.00,299.10 359.00,300.21 C359.00,302.78 357.88,305.04 356.90,304.44 C356.41,304.13 355.00,304.59 353.78,305.44 ZM 442.61 96.43 C443.01,97.47 442.65,98.00 441.55,98.00 C440.63,98.00 440.17,97.53 440.53,96.96 C440.88,96.38 440.64,95.27 439.99,94.49 C437.60,91.61 439.61,91.00 443.01,93.57 C445.58,95.51 445.91,96.03 444.26,95.54 C442.49,95.01 442.14,95.20 442.61,96.43 ZM 200.73 299.69 C200.87,300.14 200.59,302.52 200.10,305.00 C199.62,307.48 199.17,308.49 199.11,307.25 C199.05,305.94 198.36,305.00 197.47,305.00 C196.26,305.00 196.41,304.37 198.20,301.94 C199.44,300.26 200.58,299.25 200.73,299.69 ZM 323.50 438.17 C322.89,437.73 309.00,441.16 309.00,441.76 C309.00,442.03 310.46,441.98 312.25,441.64 C314.30,441.26 314.95,441.35 314.00,441.90 C312.75,442.62 309.26,443.52 303.99,444.49 C306.46,443.92 306.78,443.48 305.90,442.94 C304.98,442.37 305.32,441.98 307.05,441.60 C308.40,441.31 312.57,440.33 316.32,439.43 C320.07,438.53 323.30,437.96 323.50,438.16 C323.50,438.16 323.50,438.17 323.50,438.17 ZM 343.55 283.91 C343.18,284.51 342.38,285.00 341.77,285.00 C341.17,285.00 340.86,284.89 341.09,284.75 C341.32,284.61 342.97,283.18 344.76,281.56 L 348.00 278.63 L 348.00 281.22 C348.00,283.27 347.60,283.71 346.11,283.32 C345.07,283.05 343.92,283.31 343.55,283.91 ZM 358.12 273.43 C359.37,278.75 358.84,279.70 356.68,276.04 C355.69,274.37 355.36,273.00 355.94,273.00 C356.52,273.00 357.05,272.21 357.10,271.25 C357.16,270.29 357.62,271.27 358.12,273.43 ZM 276.17 264.75 C275.68,265.71 275.02,267.17 274.71,268.00 C274.41,268.83 274.12,268.04 274.08,266.25 C274.02,263.96 274.45,263.00 275.54,263.00 C276.67,263.00 276.84,263.45 276.17,264.75 ZM 298.29 265.00 C298.00,266.10 297.70,267.00 297.62,267.00 C297.55,267.00 296.92,266.10 296.23,265.00 C295.15,263.26 295.23,263.00 296.90,263.00 C298.32,263.00 298.68,263.51 298.29,265.00 ZM 251.50 433.00 C251.84,433.55 251.19,434.00 250.06,434.00 C248.93,434.00 248.00,433.55 248.00,433.00 C248.00,432.45 248.65,432.00 249.44,432.00 C250.23,432.00 251.16,432.45 251.50,433.00 ZM 283.00 401.12 C283.00,402.47 281.39,402.17 280.07,400.58 C279.10,399.41 279.25,399.25 280.94,399.70 C282.07,399.99 283.00,400.63 283.00,401.12 ZM 190.20 139.18 C189.38,136.83 188.47,137.46 185.49,144.74 C186.26,142.62 186.93,140.73 187.42,139.25 C188.01,137.46 188.78,136.00 189.14,136.00 C189.34,136.00 189.73,137.24 190.20,139.18 ZM 178.37 163.34 C177.02,166.81 175.87,169.51 175.31,170.54 C175.84,169.51 176.98,166.81 178.37,163.34 ZM 174.99 171.00 C174.99,171.00 174.98,171.00 174.98,171.00 C174.66,171.00 171.54,163.35 168.03,154.00 C171.49,163.24 174.60,170.81 174.99,171.00 ZM 194.01 162.06 C194.00,164.02 193.34,166.49 192.53,167.56 C193.34,166.49 194.00,163.95 194.00,161.92 C194.00,161.59 193.98,161.16 193.94,160.64 C193.98,161.21 194.01,161.69 194.01,162.06 Z" fill="rgb(225,192,166)"/>
<path d="M 414.45 119.38 C412.21,120.24 411.89,120.19 408.50,118.45 C399.45,113.80 393.27,100.64 392.31,84.00 C391.28,65.92 396.25,57.00 407.35,57.00 C414.22,57.00 418.21,61.19 419.90,70.17 C421.18,77.00 422.86,82.00 423.87,82.00 C424.22,81.99 427.20,80.65 430.50,79.00 C438.83,74.84 445.50,74.82 449.44,78.93 C451.99,81.60 452.18,82.30 451.54,86.56 C450.82,91.38 448.00,95.26 445.27,95.61 C445.27,95.37 444.54,94.72 443.01,93.57 C439.61,91.00 437.60,91.61 439.99,94.49 C440.64,95.27 440.88,96.38 440.53,96.96 C440.17,97.53 440.63,97.99 441.53,98.00 L 441.51 98.00 C440.57,98.00 438.26,98.73 436.38,99.62 C433.65,100.92 433.02,101.76 433.23,103.78 C433.46,105.92 432.71,106.73 428.50,108.92 C426.71,109.86 425.53,110.44 424.61,110.73 C425.00,110.06 424.95,109.84 424.50,110.24 C424.05,110.65 423.05,110.46 422.27,109.81 C421.09,108.83 421.24,108.42 423.18,107.25 C424.46,106.49 424.75,106.09 423.83,106.37 C423.44,106.49 423.05,106.48 422.70,106.37 C423.12,106.43 423.65,106.33 424.33,106.07 C425.41,105.67 426.11,104.98 426.37,104.28 C426.36,104.31 426.36,104.33 426.36,104.36 C426.28,105.26 426.62,106.00 427.11,106.00 C428.58,106.00 428.11,102.26 426.57,101.67 C424.70,100.95 420.02,103.15 420.01,104.75 C420.00,105.44 419.55,106.00 419.00,106.00 C418.40,106.00 418.06,106.17 417.94,106.46 C417.78,105.85 417.25,105.97 415.58,106.61 C413.45,107.43 413.59,109.21 416.05,112.34 C418.28,115.17 417.59,118.17 414.45,119.38 ZM 245.02 312.25 C238.48,315.68 227.95,316.07 221.46,313.12 C213.23,309.38 208.06,300.33 208.02,289.62 C207.99,280.79 209.48,275.97 213.77,270.96 C222.24,261.07 237.29,259.36 247.95,267.08 C254.48,271.81 256.43,276.72 256.47,288.50 C256.50,297.88 256.31,298.84 253.38,304.00 C250.93,308.33 249.16,310.08 245.02,312.25 ZM 353.78 305.44 C355.00,304.59 356.41,304.13 356.90,304.44 C357.46,304.79 358.08,304.17 358.50,303.10 C358.26,304.34 357.89,305.97 357.42,308.05 L 355.84 315.00 L 336.59 315.00 C326.00,315.00 317.06,314.72 316.72,314.39 C316.38,314.05 316.87,312.61 317.80,311.18 C320.25,307.45 320.88,275.57 318.63,269.06 C317.79,266.62 317.34,264.27 317.61,263.82 C318.49,262.40 354.61,262.81 355.73,264.25 C356.60,265.37 359.00,275.74 359.00,278.40 C359.00,278.65 358.78,278.57 358.42,278.23 C358.99,278.36 358.90,276.74 358.12,273.43 C357.62,271.27 357.16,270.29 357.10,271.25 C357.05,272.21 356.52,273.00 355.94,273.00 C355.36,273.00 355.69,274.37 356.68,276.04 L 356.72 276.11 C356.64,275.99 356.56,275.87 356.47,275.74 C355.08,273.70 352.94,271.77 351.72,271.47 C350.50,271.17 344.77,271.05 339.00,271.21 L 328.50 271.50 L 328.50 284.50 L 334.66 284.80 C339.45,285.02 340.74,284.91 343.00,283.13 C342.00,284.02 341.24,284.66 341.09,284.75 C340.86,284.89 341.17,285.00 341.77,285.00 C342.38,285.00 343.18,284.51 343.55,283.91 C343.92,283.31 345.07,283.05 346.11,283.32 C347.60,283.71 348.00,283.27 348.00,281.22 L 348.00 287.23 C348.00,291.87 347.72,295.95 347.38,296.29 C347.03,296.63 346.02,296.01 345.13,294.91 C343.71,293.17 342.51,292.94 336.00,293.20 L 328.50 293.50 L 328.50 306.50 L 335.00 306.82 C346.75,307.40 352.03,306.25 355.73,302.33 C356.17,301.85 356.57,301.44 356.92,301.09 C356.71,301.32 356.49,301.58 356.25,301.86 C354.64,303.80 352.06,305.49 350.00,305.97 C347.15,306.64 346.97,306.81 349.03,306.90 C350.42,306.95 352.56,306.30 353.78,305.44 ZM 298.29 265.00 C298.66,263.59 298.36,263.06 297.11,263.00 L 303.19 263.02 C312.49,263.03 315.07,263.87 312.47,266.02 C309.91,268.15 307.17,274.23 300.31,293.00 C296.79,302.62 293.24,311.51 292.43,312.75 C291.24,314.57 290.03,315.00 286.14,315.00 C285.73,315.00 285.35,315.01 285.00,315.02 C284.07,315.05 283.34,315.07 282.69,314.85 C280.24,314.04 278.91,309.88 271.41,290.03 C267.37,279.33 263.14,269.33 262.03,267.82 C260.91,266.32 260.00,264.61 260.00,264.04 C260.00,263.40 263.26,263.00 268.45,263.00 L 276.90 263.00 L 276.52 263.91 C276.69,263.25 276.38,263.00 275.54,263.00 C274.45,263.00 274.02,263.96 274.08,266.25 C274.12,268.04 274.41,268.83 274.71,268.00 C275.02,267.19 275.66,265.75 276.15,264.79 L 275.42 266.54 C274.02,269.88 274.11,270.58 276.97,278.91 C281.72,292.75 285.45,301.51 286.52,301.37 C288.01,301.16 297.81,275.01 297.91,270.97 C297.95,269.39 297.52,267.38 296.90,266.03 C297.28,266.61 297.57,267.00 297.62,267.00 C297.70,267.00 298.00,266.10 298.29,265.00 ZM 228.00 306.83 C231.95,307.97 236.00,307.48 240.71,305.30 C249.12,301.40 250.91,282.28 243.58,274.52 C237.34,267.90 225.21,269.01 220.00,276.67 C217.99,279.64 217.43,281.85 217.15,288.04 C216.84,294.83 217.09,296.18 219.26,299.63 C222.35,304.51 223.63,305.57 228.00,306.83 ZM 197.79 313.75 C197.03,314.67 191.80,315.00 178.04,315.00 C167.75,315.00 159.06,314.72 158.72,314.39 C158.38,314.05 158.86,312.61 159.79,311.20 C162.21,307.51 162.90,276.57 160.73,269.17 C159.91,266.37 159.49,263.84 159.79,263.54 C160.51,262.83 172.51,262.84 173.23,263.56 C173.53,263.87 173.05,265.56 172.16,267.31 C170.92,269.74 170.45,274.25 170.16,286.26 C170.13,287.77 170.09,289.16 170.05,290.46 C169.80,300.15 169.69,304.20 171.63,305.87 C173.02,307.07 175.46,307.05 179.65,307.01 C180.43,307.01 181.27,307.00 182.17,307.00 L 193.31 307.00 L 197.15 302.96 C197.57,302.52 197.97,302.11 198.35,301.75 C198.30,301.81 198.25,301.88 198.20,301.94 C196.41,304.37 196.26,305.00 197.47,305.00 C198.36,305.00 199.05,305.94 199.11,307.25 C199.17,308.49 199.62,307.48 200.10,305.00 C200.58,302.60 200.85,300.28 200.74,299.74 C200.91,299.66 201.00,299.66 201.00,299.77 C201.00,302.50 198.65,312.69 197.79,313.75 ZM 285.08 398.75 C284.32,399.62 283.58,400.41 282.98,400.99 C282.84,400.53 281.98,399.97 280.94,399.70 C280.34,399.54 279.93,399.46 279.70,399.47 C277.75,395.57 275.65,388.35 276.38,386.45 C277.05,384.70 280.15,384.55 281.78,386.18 C282.69,387.09 283.55,387.04 285.51,386.00 C287.73,384.81 288.27,384.84 289.70,386.27 C291.22,387.79 291.22,388.19 289.63,391.71 C288.69,393.79 286.64,396.96 285.08,398.75 ZM 406.67 95.34 C407.41,96.07 412.00,82.83 412.00,79.98 C412.00,78.06 409.43,76.61 407.81,77.62 C407.26,77.96 407.00,79.55 407.24,81.16 C407.47,82.77 407.29,84.32 406.83,84.60 C405.84,85.22 405.70,94.37 406.67,95.34 ZM 296.61 263.00 C295.40,263.03 295.24,263.29 295.89,264.44 L 294.89 263.00 ZM 418.01 107.22 C418.26,107.85 418.95,108.67 419.92,109.50 C418.82,108.72 418.01,107.81 418.01,107.25 ZM 281.91 401.92 C281.84,401.97 281.78,402.00 281.74,402.00 C281.48,402.00 281.17,401.76 280.83,401.34 C281.21,401.64 281.58,401.84 281.91,401.92 ZM 444.52 95.61 C444.34,95.59 444.17,95.55 443.99,95.50 C443.54,95.36 443.20,95.27 442.95,95.26 C443.25,95.27 443.67,95.36 444.26,95.54 C444.35,95.57 444.44,95.59 444.52,95.61 Z" fill="rgb(246,187,100)"/>
<path d="M 0.00 256.00 L 0.00 0.00 L 256.00 0.00 L 512.00 0.00 L 512.00 256.00 L 512.00 512.00 L 256.00 512.00 L 0.00 512.00 L 0.00 256.00 ZM 146.33 494.75 C152.71,486.22 158.51,468.29 164.01,440.06 C165.13,434.32 166.25,429.41 166.51,429.16 C166.91,428.76 174.96,431.74 192.50,438.81 C195.25,439.92 201.95,441.63 207.40,442.61 C212.84,443.60 217.71,444.87 218.22,445.45 C218.73,446.03 220.35,448.93 221.82,451.90 C225.08,458.46 228.35,461.06 234.22,461.72 C239.54,462.32 243.22,460.67 250.66,454.37 C255.33,450.42 256.33,450.00 261.16,449.97 C264.10,449.95 269.42,449.53 273.00,449.04 C276.58,448.54 284.45,447.45 290.50,446.62 C303.28,444.86 311.87,443.13 314.00,441.90 C314.95,441.35 314.30,441.26 312.25,441.64 C310.46,441.98 309.00,442.03 309.00,441.76 C309.00,441.16 323.03,437.69 323.51,438.18 C323.70,438.37 323.21,441.89 322.42,446.01 C319.62,460.60 317.85,473.16 318.39,474.57 C319.91,478.54 323.84,474.22 322.51,470.04 C321.72,467.53 326.84,438.90 328.37,437.27 C329.01,436.60 330.87,435.78 332.51,435.45 C335.41,434.87 335.50,434.96 335.50,438.67 C335.50,444.49 337.22,443.83 340.03,436.92 C341.42,433.50 343.52,430.06 344.70,429.28 C348.34,426.87 356.92,425.02 359.66,426.06 C363.04,427.34 366.71,425.28 371.56,419.37 L 375.46 414.61 L 376.30 418.86 C377.80,426.44 382.83,426.48 391.38,418.97 L 394.78 415.99 L 395.38 418.38 C396.53,422.96 399.13,422.57 404.08,417.08 C409.11,411.50 410.00,411.03 410.00,413.98 C410.00,420.55 415.89,427.22 419.81,425.09 C424.00,422.82 433.00,410.34 433.00,406.80 C433.00,403.74 430.59,404.83 428.70,408.76 C425.60,415.20 420.12,422.00 418.03,422.00 C415.34,422.00 414.14,419.32 413.25,411.40 C412.84,407.70 412.02,404.51 411.44,404.31 C410.86,404.12 407.95,407.01 404.96,410.73 C399.02,418.14 397.33,417.66 400.47,409.45 C403.78,400.78 408.05,397.92 412.15,401.64 C413.82,403.15 414.01,403.15 414.59,401.62 C415.58,399.05 413.12,397.00 409.07,397.00 C404.54,397.00 403.51,397.82 397.79,406.01 C392.30,413.86 384.80,421.00 382.02,421.00 C380.24,421.00 380.00,420.35 380.00,415.63 C380.00,408.78 382.09,406.03 390.30,402.05 C393.76,400.37 399.15,396.47 402.50,393.21 C409.48,386.44 421.92,372.07 425.72,366.42 C427.16,364.26 430.11,360.48 432.26,358.01 C448.04,339.90 461.86,306.37 469.15,268.50 C471.27,257.49 470.97,219.21 468.66,206.00 C463.44,176.08 454.08,151.94 440.37,133.00 C432.41,122.01 432.07,121.60 431.47,122.19 C431.17,122.49 433.86,128.18 437.45,134.84 C445.91,150.51 454.47,170.57 458.12,183.26 C461.28,194.24 464.20,211.23 465.91,228.55 C467.44,244.02 467.29,248.16 464.97,254.86 C463.69,258.54 462.79,264.22 462.54,270.11 C462.01,282.42 456.61,303.86 451.49,314.00 C449.40,318.12 446.27,325.10 444.53,329.50 C441.44,337.32 440.50,338.96 431.76,351.72 C429.42,355.14 426.01,360.34 424.18,363.26 C416.85,375.02 385.83,404.00 380.57,404.00 C379.03,404.00 377.46,405.19 375.88,407.56 C373.86,410.59 363.94,417.62 360.76,418.29 C360.21,418.41 359.24,416.70 358.60,414.50 C357.69,411.35 356.92,410.45 354.97,410.26 C351.95,409.96 350.31,411.20 346.05,417.00 L 342.74 421.50 L 343.41 417.00 C344.83,407.51 350.24,386.27 352.53,381.22 L 354.92 375.93 L 377.21 376.04 C395.82,376.14 399.55,375.92 399.80,374.72 C400.20,372.74 393.23,372.02 373.63,372.01 C358.98,372.00 357.81,371.87 358.32,370.25 C358.63,369.29 360.47,364.45 362.41,359.50 C364.35,354.55 365.95,349.25 365.97,347.72 C366.01,344.46 363.70,343.18 361.32,345.14 C359.07,346.99 354.42,357.44 352.16,365.71 C350.39,372.21 350.16,372.51 347.03,372.82 C345.22,373.00 343.37,372.77 342.91,372.31 C342.45,371.85 342.95,368.11 344.02,363.99 C346.34,355.05 346.45,353.00 344.61,353.00 C343.69,353.00 342.42,356.27 340.81,362.75 L 338.40 372.50 L 322.64 373.15 C313.97,373.50 306.59,374.07 306.25,374.41 C305.91,374.75 306.13,375.53 306.73,376.13 C307.46,376.86 312.68,377.10 322.41,376.85 C330.50,376.64 337.00,376.87 337.00,377.36 C337.00,377.84 335.65,384.29 333.99,391.68 C331.46,403.01 330.37,406.04 327.04,410.94 C322.05,418.29 320.53,418.92 317.98,414.73 C316.89,412.95 316.01,410.92 316.00,410.20 C316.00,409.49 315.31,407.57 314.47,405.95 C312.62,402.36 309.61,402.10 306.17,405.25 L 303.72 407.50 L 304.27 404.00 C304.58,402.08 305.16,399.67 305.56,398.65 C306.13,397.21 305.89,396.88 304.50,397.15 C303.45,397.35 302.13,399.15 301.34,401.42 C299.44,406.92 292.27,416.07 288.86,417.36 C287.29,417.95 286.00,419.01 286.00,419.72 C286.00,420.42 285.11,421.00 284.02,421.00 C281.33,421.00 280.55,417.33 281.91,411.01 C283.34,404.32 283.31,404.00 281.25,404.00 C280.10,404.00 278.29,406.33 276.00,410.75 L 272.50 417.50 L 260.50 419.09 C252.29,420.18 249.10,420.94 250.39,421.50 C251.44,421.96 256.29,421.79 261.27,421.13 C266.22,420.47 270.45,420.11 270.67,420.34 C271.14,420.81 262.97,434.51 258.50,440.76 L 255.50 444.96 L 244.19 444.98 C231.98,445.00 224.23,443.66 222.25,441.18 C221.42,440.15 221.00,435.96 221.00,428.81 C221.00,419.87 221.26,418.00 222.50,418.00 C224.39,418.00 224.42,417.05 222.58,415.61 C221.43,414.72 221.34,413.33 222.09,408.50 C226.52,380.22 242.30,345.00 250.55,345.00 C252.35,345.00 253.35,345.77 254.13,347.75 C255.78,351.93 254.47,372.50 251.57,387.97 C249.96,396.57 249.40,401.80 250.01,402.41 C250.54,402.94 251.21,403.12 251.51,402.82 C252.44,401.89 256.75,378.11 258.06,366.71 C259.05,358.08 259.05,354.78 258.04,350.21 C256.08,341.31 253.21,339.29 247.07,342.46 C237.13,347.60 222.29,382.84 218.53,410.25 C217.98,414.24 217.53,415.01 215.69,415.07 C213.56,415.13 213.56,415.16 215.50,416.11 C217.33,417.01 217.50,418.09 217.52,429.04 C217.54,439.27 217.32,440.93 216.02,440.55 C211.13,439.16 205.80,438.10 200.63,437.50 C193.24,436.65 187.56,434.66 183.36,431.46 C181.56,430.09 177.57,428.00 174.50,426.83 L 168.91 424.69 L 171.93 421.59 C173.60,419.89 178.55,416.02 182.93,413.00 C191.28,407.24 193.13,404.23 188.25,404.36 C186.74,404.40 184.38,404.09 183.00,403.67 L 180.50 402.89 L 182.76 404.87 L 185.02 406.84 L 176.37 413.52 L 167.72 420.19 L 168.34 415.35 C170.25,400.48 170.30,399.00 168.89,399.00 C168.12,399.00 166.48,400.91 165.23,403.25 C163.98,405.59 161.43,409.30 159.56,411.50 L 156.15 415.50 L 155.24 413.07 C154.41,410.86 155.04,404.61 156.61,399.66 C157.04,398.30 156.75,397.91 155.48,398.16 C154.48,398.36 152.99,400.60 151.89,403.56 C149.48,410.01 144.67,414.90 142.21,413.38 C141.27,412.79 139.92,411.14 139.22,409.71 C138.52,408.28 135.27,405.48 131.99,403.50 C128.72,401.51 125.80,399.48 125.50,399.00 C124.33,397.11 128.46,384.05 133.16,374.74 C141.92,357.42 145.07,346.39 141.82,344.39 C139.81,343.15 135.24,349.87 132.00,358.81 C127.01,372.61 112.19,436.87 113.50,439.01 C114.65,440.86 115.84,440.01 117.00,436.50 C117.64,434.58 118.81,433.00 119.61,433.00 C122.30,433.00 135.80,426.02 140.89,421.99 C143.67,419.80 146.24,418.00 146.61,418.00 C147.16,418.00 159.59,425.49 160.88,426.60 C161.08,426.77 159.44,429.09 157.22,431.73 C143.40,448.24 133.90,472.67 135.20,488.35 C135.99,497.91 141.57,501.12 146.33,494.75 ZM 251.50 433.00 C251.16,432.45 250.23,432.00 249.44,432.00 C248.65,432.00 248.00,432.45 248.00,433.00 C248.00,433.55 248.93,434.00 250.06,434.00 C251.19,434.00 251.84,433.55 251.50,433.00 ZM 285.08 398.75 C286.64,396.96 288.69,393.79 289.63,391.71 C291.22,388.19 291.22,387.79 289.70,386.27 C288.27,384.84 287.73,384.81 285.51,386.00 C283.55,387.04 282.69,387.09 281.78,386.18 C280.15,384.55 277.05,384.70 276.38,386.45 C275.37,389.10 279.81,402.00 281.74,402.00 C282.01,402.00 283.51,400.54 285.08,398.75 ZM 383.82 395.67 C384.04,394.57 383.48,394.00 382.18,394.00 C379.95,394.00 378.49,396.62 380.31,397.35 C382.17,398.11 383.47,397.48 383.82,395.67 ZM 109.44 388.25 C107.99,386.74 104.89,382.58 102.56,379.00 C98.22,372.34 95.37,369.29 94.40,370.26 C93.27,371.40 97.53,377.73 103.82,384.25 C107.40,387.96 110.72,391.00 111.20,391.00 C111.69,391.00 110.89,389.76 109.44,388.25 ZM 79.44 349.66 C74.93,341.17 72.98,338.60 73.02,341.19 C73.08,344.52 82.38,359.96 83.59,358.74 C83.84,358.50 81.97,354.41 79.44,349.66 ZM 197.79 313.75 C198.65,312.69 201.00,302.50 201.00,299.77 C201.00,299.30 199.27,300.73 197.15,302.96 L 193.31 307.00 L 182.17 307.00 C168.71,307.00 169.63,308.60 170.16,286.26 C170.45,274.25 170.92,269.74 172.16,267.31 C173.05,265.56 173.53,263.87 173.23,263.56 C172.51,262.84 160.51,262.83 159.79,263.54 C159.49,263.84 159.91,266.37 160.73,269.17 C162.90,276.57 162.21,307.51 159.79,311.20 C158.86,312.61 158.38,314.05 158.72,314.39 C159.06,314.72 167.75,315.00 178.04,315.00 C191.80,315.00 197.03,314.67 197.79,313.75 ZM 245.02 312.25 C249.16,310.08 250.93,308.33 253.38,304.00 C256.31,298.84 256.50,297.88 256.47,288.50 C256.43,276.72 254.48,271.81 247.95,267.08 C237.29,259.36 222.24,261.07 213.77,270.96 C209.48,275.97 207.99,280.79 208.02,289.62 C208.06,300.33 213.23,309.38 221.46,313.12 C227.95,316.07 238.48,315.68 245.02,312.25 ZM 292.43 312.75 C293.24,311.51 296.79,302.62 300.31,293.00 C307.17,274.23 309.91,268.15 312.47,266.02 C315.07,263.87 312.49,263.03 303.19,263.02 L 294.89 263.00 L 296.44 265.22 C297.30,266.44 297.96,269.03 297.91,270.97 C297.81,275.01 288.01,301.16 286.52,301.37 C285.45,301.51 281.72,292.75 276.97,278.91 C274.11,270.58 274.02,269.88 275.42,266.54 L 276.90 263.00 L 268.45 263.00 C263.26,263.00 260.00,263.40 260.00,264.04 C260.00,264.61 260.91,266.32 262.03,267.82 C263.14,269.33 267.37,279.33 271.41,290.03 C281.63,317.08 280.40,315.00 286.14,315.00 C290.03,315.00 291.24,314.57 292.43,312.75 ZM 357.42 308.05 C359.56,298.63 359.48,298.35 355.73,302.33 C352.03,306.25 346.75,307.40 335.00,306.82 L 328.50 306.50 L 328.50 300.00 L 328.50 293.50 L 336.00 293.20 C342.51,292.94 343.71,293.17 345.13,294.91 C346.02,296.01 347.03,296.63 347.38,296.29 C347.72,295.95 348.00,291.87 348.00,287.23 L 348.00 278.79 L 344.41 281.94 C341.10,284.85 340.35,285.07 334.66,284.80 L 328.50 284.50 L 328.50 278.00 L 328.50 271.50 L 339.00 271.21 C344.77,271.05 350.50,271.17 351.72,271.47 C352.94,271.77 355.08,273.70 356.47,275.74 C357.86,277.79 359.00,278.98 359.00,278.40 C359.00,275.74 356.60,265.37 355.73,264.25 C354.61,262.81 318.49,262.40 317.61,263.82 C317.34,264.27 317.79,266.62 318.63,269.06 C320.88,275.57 320.25,307.45 317.80,311.18 C316.87,312.61 316.38,314.05 316.72,314.39 C317.06,314.72 326.00,315.00 336.59,315.00 L 355.84 315.00 L 357.42 308.05 ZM 52.53 287.75 C50.90,279.36 46.46,264.00 45.67,264.00 C44.54,264.00 45.56,271.17 48.15,281.47 C50.37,290.30 50.66,291.00 52.14,291.00 C52.75,291.00 52.91,289.70 52.53,287.75 ZM 46.00 229.49 C46.00,218.82 46.46,207.94 47.03,205.30 C47.59,202.66 48.66,196.68 49.40,192.00 C50.14,187.32 51.48,180.89 52.38,177.70 C54.11,171.52 64.06,146.41 69.66,134.10 C73.40,125.86 73.43,123.77 69.72,129.66 C65.68,136.05 63.32,141.14 57.19,156.65 C51.28,171.60 48.05,183.16 45.91,197.00 C45.28,201.12 44.39,206.52 43.94,209.00 C42.99,214.24 42.74,244.44 43.63,247.74 C45.18,253.53 46.00,247.23 46.00,229.49 ZM 180.52 240.25 C184.67,227.90 188.54,218.30 189.46,218.08 C189.99,217.95 192.69,224.20 195.46,231.95 L 200.50 246.06 L 204.44 245.78 C208.22,245.51 208.48,245.27 210.53,240.00 C224.55,203.99 226.98,198.64 230.23,196.61 C231.57,195.78 232.37,195.94 233.73,197.30 C235.31,198.88 235.50,201.29 235.50,219.45 C235.50,239.10 235.42,239.94 233.22,242.92 L 230.94 246.00 L 240.47 246.00 C246.16,246.00 250.00,245.60 250.00,245.00 C250.00,244.45 249.56,244.00 249.03,244.00 C248.49,244.00 247.36,242.67 246.53,241.05 C245.32,238.71 245.00,234.21 245.00,219.39 C245.00,200.88 245.03,200.65 247.55,197.34 L 250.10 194.00 L 231.03 194.00 L 211.95 194.00 L 213.60 196.52 C214.75,198.27 215.08,200.17 214.66,202.77 C213.98,207.10 204.95,230.00 203.93,230.00 C203.14,230.00 202.79,229.16 196.04,210.84 C193.27,203.32 191.00,196.65 191.00,196.00 C191.00,195.36 190.48,195.01 189.85,195.22 C189.22,195.43 185.74,203.55 182.12,213.27 C178.51,222.99 175.23,230.62 174.84,230.22 C173.19,228.53 164.00,203.82 164.00,201.08 C164.00,199.28 164.88,197.26 166.19,196.04 L 168.38 194.00 L 157.49 194.00 L 146.61 194.00 L 149.63 197.25 C153.02,200.89 155.12,205.46 163.97,228.43 C167.34,237.19 170.33,244.72 170.61,245.18 C170.89,245.63 172.80,246.00 174.85,246.00 C178.51,246.00 178.63,245.88 180.52,240.25 ZM 283.92 243.42 C281.56,240.90 281.49,240.37 281.16,221.42 L 280.82 202.00 L 286.06 202.00 C290.87,202.00 291.62,202.33 295.05,205.94 C298.96,210.04 300.44,210.30 299.06,206.65 C298.61,205.47 297.93,202.14 297.53,199.25 L 296.81 194.00 L 276.94 194.00 L 257.08 194.00 L 256.04 197.85 C255.47,199.97 254.74,203.91 254.42,206.60 L 253.84 211.50 L 256.04 208.21 C258.83,204.05 262.78,202.00 268.01,202.00 L 272.12 202.00 L 271.81 220.92 C271.52,238.79 271.37,240.01 269.22,242.92 L 266.94 246.00 L 276.64 246.00 L 286.35 246.00 L 283.92 243.42 ZM 322.00 245.41 C322.00,245.08 321.10,243.67 320.00,242.27 C318.39,240.22 318.00,238.22 318.00,231.87 L 318.00 224.00 L 330.13 224.00 L 342.26 224.00 L 341.79 232.03 C341.43,238.24 340.83,240.74 339.13,243.03 L 336.94 246.00 L 346.64 246.00 L 356.35 246.00 L 353.92 243.42 C351.55,240.89 351.49,240.45 351.19,220.57 L 350.89 200.29 L 353.53 197.14 L 356.18 194.00 L 346.56 194.00 L 336.94 194.00 L 339.13 196.97 C340.83,199.26 341.43,201.76 341.79,207.97 L 342.26 216.00 L 330.13 216.00 L 318.00 216.00 L 318.00 208.43 C318.00,200.83 318.98,197.53 321.91,195.28 C323.19,194.30 321.61,194.06 313.72,194.03 L 303.94 194.00 L 306.11 196.94 C308.17,199.72 308.29,200.93 308.29,219.50 C308.29,237.99 308.16,239.29 306.14,242.02 C304.96,243.61 304.00,245.16 304.00,245.46 C304.00,245.76 308.05,246.00 313.00,246.00 C317.95,246.00 322.00,245.73 322.00,245.41 ZM 159.46 171.07 C159.77,170.56 159.06,169.46 157.87,168.62 C155.87,167.22 155.75,166.51 156.28,159.30 C156.91,150.79 159.79,137.00 160.93,137.00 C161.33,137.00 164.52,144.65 168.03,154.00 C171.54,163.35 174.66,171.00 174.98,171.00 C175.29,171.00 177.52,165.71 179.93,159.25 C188.00,137.62 189.13,135.51 190.38,139.75 C191.62,143.92 194.00,158.54 194.00,161.92 C194.00,163.95 193.34,166.49 192.53,167.56 C189.34,171.78 190.10,172.00 207.83,172.00 C217.09,172.00 224.94,171.72 225.28,171.39 C225.62,171.05 225.01,169.58 223.94,168.13 C222.17,165.73 222.10,165.08 223.28,160.99 L 224.58 156.50 L 234.80 156.21 C245.00,155.93 245.03,155.94 246.01,158.53 C247.47,162.36 247.21,167.58 245.50,169.00 C244.68,169.68 244.00,170.67 244.00,171.20 C244.00,171.78 254.08,172.02 270.25,171.81 C298.94,171.45 301.29,171.03 306.60,165.30 C315.75,155.45 316.30,137.10 307.73,127.35 C302.12,120.95 298.72,120.05 280.23,120.02 L 263.95 120.00 L 265.73 122.70 C267.20,124.95 267.56,128.18 267.84,141.87 C268.21,159.66 267.69,165.68 265.54,168.61 C264.20,170.44 264.08,170.43 261.63,168.12 C259.17,165.81 255.51,157.67 245.49,132.25 L 240.67 120.00 L 234.98 120.00 L 229.30 120.00 L 220.58 141.98 C215.78,154.07 210.99,164.98 209.93,166.23 L 208.00 168.50 L 206.13 166.30 C204.89,164.84 203.21,158.69 201.13,148.04 C197.57,129.77 197.27,124.47 199.65,121.83 C201.24,120.07 201.03,120.00 194.24,120.00 L 187.17 120.00 L 182.22 132.75 C179.50,139.76 176.96,146.51 176.57,147.75 C176.18,148.99 175.55,150.00 175.15,150.00 C174.76,150.00 171.93,143.36 168.86,135.25 L 163.28 120.50 L 155.94 120.20 C148.82,119.91 148.65,119.96 150.30,121.78 C152.39,124.09 152.46,128.93 150.55,139.50 C147.23,157.83 145.56,164.37 143.34,167.64 C142.05,169.54 141.00,171.29 141.00,171.54 C141.00,172.44 158.89,171.98 159.46,171.07 ZM 363.63 166.22 C364.27,163.32 365.08,159.83 365.42,158.47 C366.26,155.11 364.87,155.37 362.83,158.95 C360.63,162.81 355.46,164.16 344.25,163.79 L 335.50 163.50 L 335.20 156.75 L 334.91 150.00 L 342.38 150.00 C349.26,150.00 350.02,150.21 351.93,152.63 L 354.00 155.27 L 354.00 145.38 L 353.99 135.50 L 351.59 138.50 C349.34,141.31 348.75,141.50 342.34,141.50 L 335.50 141.50 L 335.20 134.75 L 334.91 128.00 L 347.00 128.00 C358.50,128.00 359.21,128.12 361.55,130.45 C362.90,131.80 364.00,133.38 364.00,133.95 C364.00,134.53 364.38,135.00 364.85,135.00 C365.32,135.00 365.04,131.62 364.22,127.50 L 362.72 120.00 L 342.49 120.00 L 322.25 120.00 L 324.20 123.95 C325.97,127.52 326.13,129.66 325.83,146.75 C325.55,162.64 325.23,166.01 323.75,168.26 C322.79,169.73 322.00,171.18 322.00,171.49 C322.00,171.79 331.10,171.92 342.23,171.77 L 362.45 171.50 L 363.63 166.22 ZM 414.45 119.38 C417.59,118.17 418.28,115.17 416.05,112.34 C413.59,109.21 413.45,107.43 415.58,106.61 C417.77,105.77 418.00,105.83 418.01,107.25 C418.01,107.94 419.25,109.18 420.76,110.01 C423.32,111.43 423.83,111.36 428.50,108.92 C432.71,106.73 433.46,105.92 433.23,103.78 C433.02,101.76 433.65,100.92 436.38,99.62 C438.26,98.73 440.57,98.00 441.51,98.00 C442.65,98.00 443.01,97.48 442.61,96.43 C442.15,95.24 442.48,95.02 443.99,95.50 C447.05,96.47 450.71,92.14 451.54,86.56 C452.18,82.30 451.99,81.60 449.44,78.93 C445.50,74.82 438.83,74.84 430.50,79.00 C427.20,80.65 424.22,81.99 423.87,82.00 C422.86,82.00 421.18,77.00 419.90,70.17 C418.21,61.19 414.22,57.00 407.35,57.00 C396.25,57.00 391.28,65.92 392.31,84.00 C393.27,100.64 399.45,113.80 408.50,118.45 C411.89,120.19 412.21,120.24 414.45,119.38 ZM 91.72 101.00 C102.62,86.48 127.22,63.72 139.00,57.26 C142.57,55.30 149.11,51.51 153.53,48.85 C162.75,43.28 173.65,38.49 189.86,32.86 C205.99,27.26 216.22,25.02 225.63,25.01 C230.58,25.00 235.16,24.41 237.35,23.50 C242.32,21.42 267.00,21.33 267.00,23.39 C267.00,25.14 272.67,26.05 275.92,24.83 C278.13,24.00 278.20,23.78 276.77,22.34 C271.42,16.99 237.56,18.13 209.00,24.63 C198.03,27.12 175.71,34.68 166.88,38.90 C156.69,43.77 140.54,52.88 132.76,58.16 C126.26,62.58 105.52,81.44 96.50,91.13 C89.71,98.43 81.99,109.51 82.02,111.91 C82.05,113.72 82.86,112.80 91.72,101.00 ZM 380.40 59.88 C376.39,55.43 364.42,48.63 366.49,51.98 C367.36,53.39 380.08,61.89 381.40,61.96 C381.90,61.98 381.45,61.05 380.40,59.88 ZM 340.00 37.09 C340.00,34.14 303.78,23.00 294.19,23.00 C286.41,23.00 290.66,24.70 305.45,27.52 C314.38,29.22 322.83,31.57 328.95,34.06 C339.27,38.26 340.00,38.46 340.00,37.09 ZM 235.00 31.00 C236.14,30.26 235.72,30.03 233.25,30.02 C231.46,30.01 230.00,30.45 230.00,31.00 C230.00,32.27 233.03,32.27 235.00,31.00 ZM 138.84 490.86 C137.80,487.40 137.88,485.03 139.31,476.61 C140.70,468.41 142.06,464.42 146.46,455.50 C151.67,444.95 158.27,435.05 160.61,434.29 C162.94,433.53 155.24,466.62 149.85,480.50 C146.78,488.41 142.75,495.00 140.99,495.00 C140.49,495.00 139.52,493.14 138.84,490.86 ZM 230.41 457.11 C227.93,455.60 222.39,447.27 223.28,446.39 C223.40,446.27 225.52,446.56 228.00,447.04 C230.48,447.52 236.41,447.93 241.19,447.96 C245.97,447.98 250.13,448.41 250.44,448.91 C251.62,450.82 239.33,459.00 235.29,459.00 C234.31,458.99 232.11,458.14 230.41,457.11 ZM 262.78 445.13 L 260.07 444.50 L 265.61 436.00 C268.65,431.33 272.31,425.36 273.73,422.75 C276.67,417.35 277.52,416.95 278.42,420.53 C278.77,421.93 280.11,423.55 281.40,424.14 C284.09,425.36 286.26,424.47 292.25,419.67 C294.31,418.02 296.20,416.87 296.44,417.11 C296.69,417.35 296.45,419.48 295.92,421.84 C294.96,426.13 295.30,428.00 297.05,428.00 C297.56,428.00 299.31,425.07 300.93,421.49 C302.55,417.91 304.47,414.83 305.19,414.64 C305.91,414.46 307.95,413.83 309.72,413.25 C312.81,412.24 313.00,412.34 314.72,415.84 C317.19,420.90 320.99,422.12 325.00,419.16 C328.51,416.56 328.45,416.23 326.39,426.64 L 324.77 434.78 L 317.64 436.87 C295.00,443.50 271.18,447.09 262.78,445.13 ZM 329.00 431.61 C329.00,429.67 339.10,382.85 340.61,377.75 C341.00,376.47 342.19,376.00 345.07,376.00 C347.23,376.00 349.00,376.28 349.00,376.63 C349.00,378.25 344.65,395.70 343.88,397.18 C343.40,398.11 342.10,399.15 341.00,399.50 C339.90,399.85 339.00,400.57 339.00,401.10 C339.00,401.69 339.78,401.65 341.00,401.00 C343.53,399.64 343.53,399.88 340.95,411.38 C339.82,416.39 338.42,422.65 337.84,425.28 C336.93,429.40 336.29,430.27 333.27,431.53 C328.98,433.33 329.00,433.33 329.00,431.61 ZM 121.44 426.36 C122.73,421.18 130.96,409.00 133.17,409.00 C134.66,409.00 134.04,413.00 131.89,417.29 C129.59,421.88 125.59,426.58 122.61,428.19 C120.91,429.12 120.80,428.94 121.44,426.36 ZM 346.00 424.26 C346.00,422.97 351.61,414.36 353.01,413.49 C354.57,412.53 355.97,414.75 355.98,418.22 C356.00,420.20 355.24,421.33 353.25,422.35 C349.20,424.41 346.00,425.25 346.00,424.26 ZM 157.46 421.11 C147.89,417.67 146.56,416.43 149.66,413.87 C150.98,412.79 151.41,412.77 151.75,413.77 C152.60,416.30 155.21,418.00 158.24,418.00 C159.94,418.00 161.05,417.71 160.70,417.36 C159.98,416.64 163.71,411.00 164.91,411.00 C165.33,411.00 165.33,413.14 164.90,415.75 C164.47,418.36 164.09,421.06 164.06,421.75 C163.98,423.35 163.54,423.30 157.46,421.11 ZM 134.17 421.25 C134.36,420.84 135.16,418.81 135.96,416.75 C137.51,412.72 138.49,412.29 141.29,414.42 C142.95,415.68 142.79,416.00 139.14,418.89 C135.33,421.91 133.48,422.79 134.17,421.25 ZM 121.44 414.50 C122.39,408.96 124.20,402.99 124.91,403.03 C125.23,403.05 126.58,403.97 127.90,405.06 C130.01,406.82 130.11,407.21 128.76,408.28 C127.92,408.95 125.77,411.52 123.99,414.00 L 120.75 418.50 L 121.44 414.50 ZM 307.02 410.32 C307.02,409.87 307.43,408.87 307.91,408.10 C308.97,406.43 312.35,407.44 311.75,409.25 C311.30,410.64 306.99,411.61 307.02,410.32 ZM 228.00 306.83 C223.63,305.57 222.35,304.51 219.26,299.63 C217.09,296.18 216.84,294.83 217.15,288.04 C217.43,281.85 217.99,279.64 220.00,276.67 C225.21,269.01 237.34,267.90 243.58,274.52 C250.91,282.28 249.12,301.40 240.71,305.30 C236.00,307.48 231.95,307.97 228.00,306.83 ZM 277.75 163.44 C277.34,163.01 277.00,154.87 277.00,145.33 L 277.00 128.00 L 285.75 128.00 C295.79,128.01 299.70,129.67 302.68,135.21 C305.25,139.99 305.15,151.39 302.50,155.90 C299.02,161.80 296.01,163.31 286.77,163.78 C282.22,164.01 278.16,163.86 277.75,163.44 ZM 229.00 146.81 C229.00,145.19 234.37,132.03 235.03,132.01 C235.32,132.01 236.05,133.24 236.65,134.75 C237.25,136.26 238.69,139.86 239.85,142.75 L 241.97 148.00 L 235.49 148.00 C231.13,148.00 229.00,147.61 229.00,146.81 ZM 421.57 105.33 C421.15,104.24 421.43,103.95 422.49,104.36 C423.44,104.72 424.00,104.36 424.00,103.39 C424.00,102.53 424.56,102.02 425.25,102.25 C427.24,102.91 426.70,105.20 424.33,106.07 C422.77,106.65 422.00,106.45 421.57,105.33 ZM 406.67 95.34 C405.70,94.37 405.84,85.22 406.83,84.60 C407.29,84.32 407.47,82.77 407.24,81.16 C407.00,79.55 407.26,77.96 407.81,77.62 C409.43,76.61 412.00,78.06 412.00,79.98 C412.00,82.83 407.41,96.07 406.67,95.34 Z" fill="rgb(254,254,253)"/>
</g>
</svg>